<?xml version="1.0" standalone="no"?>
<!DOCTYPE svg PUBLIC "-//W3C//DTD SVG 20010904//EN"
 "http://www.w3.org/TR/2001/REC-SVG-20010904/DTD/svg10.dtd">
<svg version="1.0" xmlns="http://www.w3.org/2000/svg"
 width="3125.000000pt" height="1875.000000pt" viewBox="0 0 3125.000000 1875.000000"
 preserveAspectRatio="xMidYMid meet">

<g transform="translate(0.000000,1875.000000) scale(0.100000,-0.100000)"
fill="#B30700" stroke="none">
<path d="M15100 18309 c-1709 -105 -3311 -672 -4695 -1663 -660 -472 -1315
-1099 -1817 -1737 -572 -728 -1004 -1491 -1338 -2364 -637 -1665 -754 -3537
-329 -5295 263 -1091 757 -2170 1411 -3083 491 -685 1057 -1280 1724 -1813
703 -562 1514 -1025 2374 -1355 1356 -520 2841 -699 4315 -518 1521 186 3016
790 4250 1717 632 475 1240 1074 1721 1697 739 956 1279 2062 1584 3240 414
1601 368 3351 -130 4920 -510 1609 -1442 3019 -2724 4119 -1296 1111 -2898
1833 -4586 2066 -147 20 -342 41 -570 61 -161 14 -1002 20 -1190 8z m1730
-940 c149 -38 289 -119 361 -210 43 -55 78 -144 79 -200 0 -63 -30 -91 -104
-97 -48 -4 -58 -1 -79 20 -13 13 -32 50 -42 81 -49 156 -229 247 -464 235
-102 -5 -147 -25 -208 -91 -78 -84 -93 -209 -35 -291 37 -54 118 -96 397 -207
258 -102 321 -136 389 -209 65 -70 97 -142 103 -238 12 -184 -68 -366 -197
-447 -104 -65 -274 -101 -443 -92 -341 18 -581 182 -642 438 -8 35 -15 77 -15
92 0 26 3 28 28 23 15 -3 64 -10 109 -17 l81 -11 7 -36 c36 -192 242 -313 514
-299 124 6 163 16 228 60 66 44 103 118 105 208 1 87 -15 130 -67 178 -56 51
-116 81 -355 176 -262 103 -337 143 -404 216 -70 75 -91 134 -91 249 2 239
158 431 395 485 85 19 238 12 350 -16z m-2230 10 c142 -22 255 -101 314 -220
46 -91 59 -161 54 -283 -3 -92 -7 -107 -38 -164 -18 -35 -59 -89 -91 -120
l-58 -56 61 -23 c159 -60 184 -115 248 -537 35 -231 34 -241 -22 -276 -57 -34
-126 -22 -152 27 -8 16 -29 123 -46 238 -36 230 -56 298 -103 352 -47 54 -97
73 -192 73 -67 0 -322 -32 -330 -42 -1 -2 24 -169 55 -373 32 -203 55 -373 52
-376 -8 -7 -205 -39 -210 -34 -10 9 -269 1730 -262 1735 5 3 121 22 257 43
136 20 259 38 273 40 51 8 127 7 190 -4z m-2118 -724 c242 -51 438 -221 576
-501 87 -175 122 -310 122 -473 0 -328 -164 -571 -486 -723 -124 -58 -220 -80
-344 -81 -171 -1 -310 48 -453 162 -183 146 -339 412 -387 661 -16 83 -13 267
6 351 45 205 178 372 389 488 200 110 407 152 577 116z m6678 -34 c246 -83
451 -244 544 -428 96 -192 91 -441 -15 -687 -110 -257 -278 -446 -484 -546
-119 -57 -191 -74 -320 -73 -127 1 -222 23 -339 76 -227 106 -373 252 -449
449 -31 81 -31 87 -31 248 0 151 2 172 28 255 113 370 372 648 674 725 118 30
267 23 392 -19z m-2925 -1745 c1019 -111 1878 -446 2670 -1041 569 -428 1097
-999 1454 -1575 443 -714 688 -1445 778 -2325 25 -239 25 -898 0 -1135 -141
-1349 -666 -2432 -1643 -3390 -999 -979 -2145 -1488 -3529 -1570 -1047 -61
-2077 155 -2930 617 -688 372 -1325 918 -1830 1568 -584 751 -953 1641 -1069
2580 -36 292 -41 377 -41 765 0 495 23 744 106 1155 242 1209 907 2291 1928
3140 851 707 1862 1124 2946 1214 72 6 148 13 170 15 112 11 849 -3 990 -18z
m-6320 -5738 c50 -1063 309 -1927 824 -2756 367 -590 917 -1185 1506 -1629
599 -451 1281 -772 2005 -944 441 -104 873 -152 1380 -151 920 0 1711 174
2470 543 607 296 1108 662 1620 1185 1002 1024 1529 2219 1610 3654 5 96 10
190 10 208 l0 32 1530 0 1530 0 0 -122 c0 -415 -70 -1052 -166 -1523 -417
-2040 -1509 -3828 -3134 -5130 -854 -684 -1834 -1202 -2895 -1530 -627 -194
-1259 -312 -1965 -367 -218 -17 -1001 -17 -1220 0 -1217 94 -2248 375 -3320
908 -1130 561 -2131 1370 -2936 2374 -1061 1322 -1723 2958 -1879 4641 -21
234 -35 474 -35 622 l0 127 1529 0 1529 0 7 -142z"/>
<path d="M14305 17180 c-203 -32 -188 -27 -181 -63 3 -18 24 -156 47 -307 23
-151 43 -276 45 -278 1 -2 71 8 155 22 230 39 341 102 370 209 17 65 7 212
-20 273 -62 142 -177 182 -416 144z"/>
<path d="M12185 16455 c-173 -38 -344 -164 -415 -304 -95 -188 -85 -387 31
-630 93 -195 213 -327 367 -404 85 -42 86 -42 196 -42 95 0 123 4 191 28 178
60 308 164 373 295 36 74 37 78 40 211 3 120 0 148 -22 236 -32 127 -116 298
-190 387 -158 190 -361 270 -571 223z"/>
<path d="M18870 16453 c-159 -26 -308 -132 -419 -297 -180 -267 -229 -552
-130 -756 59 -119 212 -243 375 -302 89 -32 233 -37 316 -9 245 81 485 395
534 698 15 91 15 108 2 190 -9 53 -28 116 -46 154 -105 218 -389 363 -632 322z"/>
<path d="M15220 14610 c-854 -73 -1627 -324 -2345 -763 -548 -335 -1066 -807
-1460 -1332 -501 -668 -837 -1456 -974 -2285 -46 -277 -61 -446 -68 -745 -11
-502 38 -936 158 -1411 383 -1522 1453 -2813 2879 -3474 556 -258 1123 -408
1775 -472 165 -16 720 -16 880 0 476 48 811 118 1230 257 458 152 837 338
1245 610 479 320 884 697 1245 1160 108 138 311 441 405 605 450 784 689 1688
690 2608 1 1374 -534 2686 -1495 3670 -780 800 -1780 1325 -2878 1513 -286 48
-437 60 -817 64 -201 2 -412 -1 -470 -5z m3923 -3200 c1048 -1824 1168 -2038
1159 -2060 -5 -14 -532 -934 -1170 -2045 l-1161 -2020 -2346 0 -2346 0 -1161
2020 c-638 1111 -1165 2031 -1170 2045 -9 22 111 235 1147 2040 636 1108 1163
2025 1171 2038 l14 22 2347 -2 2347 -3 1169 -2035z"/>
<path d="M15410 11234 c-108 -13 -270 -51 -386 -89 -545 -179 -988 -604 -1189
-1140 -108 -289 -146 -593 -110 -895 102 -874 779 -1559 1660 -1680 119 -16
386 -13 512 5 720 107 1314 604 1542 1291 133 399 133 809 0 1208 -191 574
-640 1023 -1214 1211 -214 71 -316 87 -565 90 -118 2 -231 1 -250 -1z"/>
<path d="M9570 5651 c-41 -27 -135 -88 -208 -135 l-134 -87 21 -32 c12 -18 26
-31 32 -29 6 1 37 20 68 41 104 71 93 72 152 -19 l51 -80 29 17 c16 10 29 22
29 28 0 6 -20 40 -45 77 -25 37 -45 72 -45 77 0 10 110 85 115 79 1 -2 28 -42
59 -90 32 -49 60 -88 64 -88 4 0 19 8 34 18 l27 18 -82 127 c-45 70 -84 127
-87 127 -3 0 -39 -22 -80 -49z"/>
<path d="M21574 5646 c-72 -57 -115 -158 -94 -221 12 -36 54 -79 86 -89 31 -9
89 13 160 61 79 54 106 61 133 34 12 -12 21 -30 21 -41 0 -48 -54 -129 -105
-157 -19 -11 -19 -11 0 -47 11 -20 22 -36 26 -36 16 0 102 86 123 123 56 96
53 176 -8 222 -67 51 -121 44 -226 -30 -72 -51 -112 -58 -131 -24 -17 33 3 88
50 133 40 39 40 39 23 68 -9 15 -19 28 -22 28 -3 0 -19 -11 -36 -24z"/>
<path d="M9860 4999 c-96 -77 -183 -149 -194 -159 -18 -18 -16 -21 85 -149 57
-72 106 -131 109 -131 3 1 17 11 32 23 l26 22 -79 99 c-43 54 -79 101 -79 105
1 6 95 81 102 81 3 0 35 -38 72 -85 l67 -85 30 22 c16 12 29 23 29 25 0 2 -29
40 -65 84 -36 45 -65 85 -65 89 0 10 86 80 98 80 6 0 43 -40 82 -90 39 -49 75
-90 79 -90 17 0 52 34 47 46 -5 12 -196 255 -200 254 0 -1 -80 -64 -176 -141z"/>
<path d="M21161 5074 c-12 -15 -21 -30 -21 -35 0 -4 88 -76 196 -160 l196
-152 24 29 c13 16 22 32 21 36 -2 7 -386 308 -392 308 -2 0 -13 -12 -24 -26z"/>
<path d="M20744 4592 c4 -9 55 -126 114 -260 l107 -242 28 28 29 29 -30 65
-29 65 59 66 59 66 66 -25 66 -25 29 28 c20 19 25 29 16 34 -11 6 -91 35 -482
175 -35 13 -38 13 -32 -4z m253 -153 c8 -3 -2 -21 -26 -49 l-39 -45 -31 68
c-17 38 -31 70 -31 72 0 2 26 -7 58 -19 31 -13 63 -25 69 -27z"/>
<path d="M10320 4405 l-175 -175 27 -27 27 -26 66 58 67 58 26 -26 26 -26 -23
-102 -23 -102 35 -35 35 -34 16 73 c35 153 33 149 72 149 51 0 96 22 131 65
64 77 52 143 -44 248 -36 40 -71 73 -77 75 -6 1 -90 -76 -186 -173z m260 -46
c0 -29 -7 -43 -31 -63 -43 -36 -72 -33 -122 13 l-42 40 60 60 59 61 38 -37
c31 -30 38 -44 38 -74z"/>
<path d="M20306 4155 c-26 -21 -28 -25 -15 -41 60 -74 313 -350 323 -352 6 -1
22 8 35 22 l23 25 -38 45 c-95 110 -289 325 -294 325 -3 0 -18 -10 -34 -24z"/>
<path d="M10890 3904 c-194 -237 -177 -210 -149 -240 12 -13 27 -24 33 -23 6
0 33 27 59 60 27 32 52 59 57 59 5 0 20 -10 34 -22 l26 -23 -12 -101 -11 -102
34 -30 c41 -36 44 -32 53 63 12 128 15 135 48 135 37 0 75 20 109 57 82 88 62
175 -60 276 -38 31 -73 57 -78 57 -4 -1 -69 -75 -143 -166z m201 23 c20 -19
40 -44 44 -56 17 -54 -47 -119 -103 -106 -15 3 -42 19 -61 35 l-33 28 53 66
c29 36 55 66 58 66 3 0 22 -15 42 -33z"/>
<path d="M19930 3839 c-176 -79 -213 -298 -74 -431 102 -97 250 -92 355 13 21
21 45 52 54 68 l15 30 -38 20 -38 19 -20 -36 c-28 -52 -96 -92 -156 -92 -175
0 -241 215 -97 319 23 17 48 31 55 31 20 0 26 17 19 50 -8 35 -15 36 -75 9z"/>
<path d="M11523 3392 c-122 -81 -224 -149 -227 -152 -2 -3 10 -15 28 -27 l33
-21 61 40 60 39 72 -47 c68 -46 71 -50 65 -79 -20 -100 -19 -111 14 -134 23
-17 32 -19 36 -9 5 16 95 513 95 527 0 6 -3 11 -7 10 -5 0 -108 -67 -230 -147z
m129 -67 l-15 -75 -26 16 c-15 9 -38 24 -50 33 l-23 17 64 42 c35 23 63 42 64
42 1 0 -6 -34 -14 -75z"/>
<path d="M19238 3368 c-76 -46 -138 -87 -138 -91 0 -16 252 -428 259 -425 5 2
71 41 149 87 148 89 146 86 110 134 -12 16 -20 13 -113 -44 -55 -34 -105 -63
-111 -66 -11 -4 -74 87 -74 106 0 5 41 33 90 62 50 29 90 58 90 64 0 5 -9 21
-19 34 l-18 24 -89 -53 c-49 -29 -92 -55 -95 -56 -4 -2 -23 23 -42 55 l-35 60
104 61 c57 34 104 68 104 75 0 7 -8 22 -17 34 l-18 21 -137 -82z"/>
<path d="M12136 3012 l-116 -232 35 -17 c19 -9 37 -15 39 -12 2 2 29 55 60
118 32 62 59 111 61 109 2 -2 13 -64 25 -138 12 -74 23 -136 24 -137 1 -2 56
26 121 62 66 35 121 62 123 61 2 -2 -22 -54 -52 -115 -31 -61 -56 -114 -56
-119 0 -8 70 -46 75 -40 10 11 225 451 222 454 -2 2 -86 -39 -187 -91 -101
-52 -185 -94 -186 -92 -1 1 -18 97 -37 212 l-34 210 -117 -233z"/>
<path d="M18640 3041 c-26 -9 -162 -70 -167 -75 -3 -3 203 -446 211 -453 2 -2
19 4 39 13 l35 17 -34 75 c-38 83 -40 92 -21 92 25 0 107 60 127 92 11 19 20
51 20 73 0 49 -35 122 -71 148 -30 22 -101 31 -139 18z m93 -91 c57 -45 42
-117 -33 -155 l-48 -24 -36 75 c-20 42 -36 78 -36 81 0 8 85 43 106 43 12 0
33 -9 47 -20z"/>
<path d="M12991 2605 c-46 -130 -82 -237 -80 -239 2 -2 67 -26 144 -54 77 -28
147 -53 156 -57 12 -5 20 2 28 26 6 17 9 35 6 39 -2 4 -51 24 -107 44 -57 20
-109 40 -116 45 -10 6 -8 20 9 67 13 32 23 60 24 62 1 1 44 -14 96 -33 52 -19
99 -35 106 -35 8 0 33 48 33 65 0 1 -47 19 -105 40 l-104 37 21 56 c11 32 24
60 27 65 4 4 56 -11 116 -33 59 -22 111 -40 115 -40 8 0 33 61 27 66 -3 3
-305 114 -310 114 -1 0 -40 -106 -86 -235z"/>
<path d="M17991 2774 c-93 -25 -141 -75 -141 -148 0 -86 40 -114 174 -126 107
-10 125 -15 136 -44 20 -54 -63 -116 -158 -116 -51 0 -51 0 -58 -35 -3 -20 -3
-39 0 -43 4 -3 35 -5 68 -5 72 2 179 50 211 94 27 38 32 97 10 138 -31 59 -60
73 -174 82 -56 5 -108 14 -116 21 -8 6 -13 25 -11 42 4 38 48 66 121 75 52 6
52 6 55 44 3 36 2 37 -30 36 -18 0 -57 -7 -87 -15z"/>
<path d="M13704 2371 l-61 -250 39 -6 c22 -4 41 -5 42 -3 2 1 16 55 30 118 15
63 32 133 37 154 l11 39 40 -64 c105 -168 224 -349 228 -349 8 0 124 490 118
496 -10 9 -68 22 -72 16 -2 -4 -21 -76 -41 -160 -36 -149 -38 -153 -52 -125
-22 43 -247 383 -254 383 -3 0 -32 -112 -65 -249z"/>
<path d="M17280 2562 c-80 -19 -147 -37 -150 -39 -2 -2 22 -112 55 -243 41
-166 64 -240 73 -240 13 0 314 70 319 74 1 1 -2 19 -8 40 -8 28 -14 36 -27 32
-73 -22 -224 -56 -231 -52 -12 8 -34 117 -24 126 4 4 52 18 106 30 l98 23 -7
31 c-3 17 -8 34 -10 37 -2 4 -46 -4 -96 -17 -51 -13 -100 -24 -109 -24 -11 0
-20 19 -31 65 -14 59 -14 65 1 69 9 3 59 15 111 27 52 12 100 24 106 28 14 8
-2 71 -19 70 -7 -1 -77 -17 -157 -37z"/>
<path d="M14570 2423 c0 -10 -3 -28 -6 -39 -5 -20 -1 -22 55 -29 35 -4 61 -12
61 -18 0 -7 -11 -100 -25 -207 -14 -107 -25 -198 -25 -202 0 -7 79 -12 81 -5
0 1 12 94 27 207 l27 205 35 -3 c19 -1 47 -5 61 -8 24 -5 27 -1 32 32 4 21 5
39 4 41 -3 2 -302 43 -318 43 -5 0 -9 -8 -9 -17z"/>
<path d="M15287 2137 c-64 -138 -117 -255 -117 -259 0 -5 17 -8 38 -8 38 0 39
1 67 65 l27 65 88 0 88 0 28 -70 27 -70 39 0 c33 0 38 3 34 18 -3 9 -50 128
-104 264 l-97 248 -118 -253z m137 11 c10 -29 21 -59 23 -65 4 -10 -10 -13
-52 -13 -42 0 -56 3 -52 13 36 86 51 117 56 117 3 0 15 -24 25 -52z"/>
<path d="M16110 2381 c-82 -16 -130 -68 -130 -141 0 -60 44 -101 138 -130 89
-27 124 -53 120 -88 -7 -55 -95 -82 -199 -59 -34 7 -37 5 -49 -22 -16 -39 -10
-47 51 -61 101 -24 226 9 262 69 21 35 22 102 3 140 -20 37 -50 56 -132 82
-38 12 -79 28 -91 35 -32 20 -29 57 5 84 24 20 35 22 98 17 69 -5 72 -4 83 19
19 43 21 42 -99 58 -14 2 -41 1 -60 -3z"/>
</g>
</svg>
